<svg width="22" height="21" viewBox="0 0 22 21" fill="none" xmlns="http://www.w3.org/2000/svg">
<path d="M11 0C5.20156 0 0.5 4.70156 0.5 10.5C0.5 16.2984 5.20156 21 11 21C16.7984 21 21.5 16.2984 21.5 10.5C21.5 4.70156 16.7984 0 11 0ZM10.25 5.4375C10.25 5.33437 10.3344 5.25 10.4375 5.25H11.5625C11.6656 5.25 11.75 5.33437 11.75 5.4375V11.8125C11.75 11.9156 11.6656 12 11.5625 12H10.4375C10.3344 12 10.25 11.9156 10.25 11.8125V5.4375ZM11 15.75C10.7056 15.744 10.4253 15.6228 10.2192 15.4125C10.0132 15.2022 9.89773 14.9195 9.89773 14.625C9.89773 14.3305 10.0132 14.0478 10.2192 13.8375C10.4253 13.6272 10.7056 13.506 11 13.5C11.2944 13.506 11.5747 13.6272 11.7808 13.8375C11.9868 14.0478 12.1023 14.3305 12.1023 14.625C12.1023 14.9195 11.9868 15.2022 11.7808 15.4125C11.5747 15.6228 11.2944 15.744 11 15.75Z" fill="#CF1322"/>
</svg>
