<svg width="28" height="28" viewBox="0 0 28 28" fill="none" xmlns="http://www.w3.org/2000/svg">
<path d="M14 0.666672C12.249 0.666672 10.5152 1.01155 8.89756 1.68161C7.27988 2.35167 5.81003 3.3338 4.57191 4.57191C2.07143 7.0724 0.666672 10.4638 0.666672 14C0.666672 17.5362 2.07143 20.9276 4.57191 23.4281C5.81003 24.6662 7.27988 25.6483 8.89756 26.3184C10.5152 26.9885 12.249 27.3333 14 27.3333C17.5362 27.3333 20.9276 25.9286 23.4281 23.4281C25.9286 20.9276 27.3333 17.5362 27.3333 14C27.3333 12.249 26.9885 10.5152 26.3184 8.89756C25.6483 7.27988 24.6662 5.81003 23.4281 4.57191C22.19 3.3338 20.7201 2.35167 19.1025 1.68161C17.4848 1.01155 15.751 0.666672 14 0.666672M14 24.6667C11.171 24.6667 8.45792 23.5429 6.45753 21.5425C4.45714 19.5421 3.33334 16.829 3.33334 14C3.33334 11.171 4.45714 8.45792 6.45753 6.45753C8.45792 4.45714 11.171 3.33334 14 3.33334C16.829 3.33334 19.5421 4.45714 21.5425 6.45753C23.5429 8.45792 24.6667 11.171 24.6667 14C24.6667 16.829 23.5429 19.5421 21.5425 21.5425C19.5421 23.5429 16.829 24.6667 14 24.6667M9.33334 12.6667C8.8029 12.6667 8.2942 12.456 7.91912 12.0809C7.54405 11.7058 7.33334 11.1971 7.33334 10.6667C7.33334 10.1362 7.54405 9.62753 7.91912 9.25246C8.2942 8.87738 8.8029 8.66667 9.33334 8.66667C9.86377 8.66667 10.3725 8.87738 10.7476 9.25246C11.1226 9.62753 11.3333 10.1362 11.3333 10.6667C11.3333 11.1971 11.1226 11.7058 10.7476 12.0809C10.3725 12.456 9.86377 12.6667 9.33334 12.6667ZM20.6667 10.6667C20.6667 11.1971 20.456 11.7058 20.0809 12.0809C19.7058 12.456 19.1971 12.6667 18.6667 12.6667C18.1362 12.6667 17.6275 12.456 17.2525 12.0809C16.8774 11.7058 16.6667 11.1971 16.6667 10.6667C16.6667 10.1362 16.8774 9.62753 17.2525 9.25246C17.6275 8.87738 18.1362 8.66667 18.6667 8.66667C19.1971 8.66667 19.7058 8.87738 20.0809 9.25246C20.456 9.62753 20.6667 10.1362 20.6667 10.6667M19.3333 16.6667V19.3333H8.66667V16.6667H19.3333Z" fill="#BFBFBF"/>
</svg>
