<svg width="28" height="28" viewBox="0 0 28 28" fill="none" xmlns="http://www.w3.org/2000/svg">
<path d="M24.6667 14C24.6667 11.171 23.5429 8.45792 21.5425 6.45753C19.5421 4.45714 16.829 3.33334 14 3.33334C11.171 3.33334 8.45792 4.45714 6.45753 6.45753C4.45714 8.45792 3.33334 11.171 3.33334 14C3.33334 16.829 4.45714 19.5421 6.45753 21.5425C8.45792 23.5429 11.171 24.6667 14 24.6667C16.829 24.6667 19.5421 23.5429 21.5425 21.5425C23.5429 19.5421 24.6667 16.829 24.6667 14ZM27.3333 14C27.3333 17.5362 25.9286 20.9276 23.4281 23.4281C20.9276 25.9286 17.5362 27.3333 14 27.3333C12.249 27.3333 10.5152 26.9885 8.89756 26.3184C7.27988 25.6483 5.81003 24.6662 4.57191 23.4281C2.07143 20.9276 0.666672 17.5362 0.666672 14C0.666672 10.4638 2.07143 7.0724 4.57191 4.57191C7.0724 2.07143 10.4638 0.666672 14 0.666672C15.751 0.666672 17.4848 1.01155 19.1025 1.68161C20.7201 2.35167 22.19 3.3338 23.4281 4.57191C24.6662 5.81003 25.6483 7.27988 26.3184 8.89756C26.9885 10.5152 27.3333 12.249 27.3333 14M18.6667 8.66667C19.7333 8.66667 20.6667 9.6 20.6667 10.6667C20.6667 11.7333 19.7333 12.6667 18.6667 12.6667C17.6 12.6667 16.6667 11.7333 16.6667 10.6667C16.6667 9.6 17.6 8.66667 18.6667 8.66667ZM11.3333 10.6667C11.3333 11.7333 10.4 12.6667 9.33334 12.6667C8.26667 12.6667 7.33334 11.7333 7.33334 10.6667C7.33334 9.6 8.26667 8.66667 9.33334 8.66667C10.4 8.66667 11.3333 9.6 11.3333 10.6667ZM14 16.6667C16.3333 16.6667 18.3867 17.6267 19.5867 19.08L17.6933 20.9733C17.0933 20 15.6667 19.3333 14 19.3333C12.3333 19.3333 10.9067 20 10.3067 20.9733L8.41334 19.08C9.61334 17.6267 11.6667 16.6667 14 16.6667Z" fill="#BFBFBF"/>
</svg>
