<svg width="28" height="28" viewBox="0 0 28 28" fill="none" xmlns="http://www.w3.org/2000/svg">
<path d="M14 0.666672C6.62667 0.666672 0.666666 6.62667 0.666666 14C0.666666 21.3733 6.62667 27.3333 14 27.3333C17.5362 27.3333 20.9276 25.9286 23.4281 23.4281C25.9286 20.9276 27.3333 17.5362 27.3333 14C27.3333 6.62667 21.3333 0.666672 14 0.666672ZM14 24.6667C11.171 24.6667 8.45791 23.5429 6.45753 21.5425C4.45714 19.5421 3.33333 16.829 3.33333 14C3.33333 11.171 4.45714 8.45792 6.45753 6.45753C8.45791 4.45714 11.171 3.33334 14 3.33334C16.829 3.33334 19.5421 4.45714 21.5425 6.45753C23.5429 8.45792 24.6667 11.171 24.6667 14C24.6667 16.829 23.5429 19.5421 21.5425 21.5425C19.5421 23.5429 16.829 24.6667 14 24.6667M15.3333 11.2533L16.7467 12.6667L18.16 11.2533L19.5733 12.6667L20.9867 11.2533L18.16 8.42667L15.3333 11.2533ZM9.84 11.2533L11.2533 12.6667L12.6667 11.2533L9.84 8.42667L7.01333 11.2533L8.42667 12.6667L9.84 11.2533M14 21.3333C17.1067 21.3333 19.7467 19.3867 20.8133 16.6667H7.18667C8.25333 19.3867 10.8933 21.3333 14 21.3333Z" fill="#BFBFBF"/>
</svg>
