<svg width="99" height="114" viewBox="0 0 99 114" fill="none" xmlns="http://www.w3.org/2000/svg">
<path d="M49.5 57C64.9656 57 77.5 44.2418 77.5 28.5C77.5 12.7582 64.9656 0 49.5 0C34.0344 0 21.5 12.7582 21.5 28.5C21.5 44.2418 34.0344 57 49.5 57ZM69.1 64.125H65.4469C60.5906 66.3961 55.1875 67.6875 49.5 67.6875C43.8125 67.6875 38.4313 66.3961 33.5531 64.125H29.9C13.6687 64.125 0.5 77.5289 0.5 94.05V103.312C0.5 109.213 5.20312 114 11 114H88C93.7969 114 98.5 109.213 98.5 103.312V94.05C98.5 77.5289 85.3313 64.125 69.1 64.125Z" fill="white"/>
</svg>
