<svg width="28" height="28" viewBox="0 0 28 28" fill="none" xmlns="http://www.w3.org/2000/svg">
<path d="M14 21.3333C17.1067 21.3333 19.7333 19.3867 20.8133 16.6667H7.18666C8.25333 19.3867 10.8933 21.3333 14 21.3333ZM9.33333 12.6667C9.86376 12.6667 10.3725 12.456 10.7475 12.0809C11.1226 11.7058 11.3333 11.1971 11.3333 10.6667C11.3333 10.1362 11.1226 9.62753 10.7475 9.25246C10.3725 8.87738 9.86376 8.66667 9.33333 8.66667C8.8029 8.66667 8.29419 8.87738 7.91912 9.25246C7.54404 9.62753 7.33333 10.1362 7.33333 10.6667C7.33333 11.1971 7.54404 11.7058 7.91912 12.0809C8.29419 12.456 8.8029 12.6667 9.33333 12.6667ZM18.6667 12.6667C19.1971 12.6667 19.7058 12.456 20.0809 12.0809C20.4559 11.7058 20.6667 11.1971 20.6667 10.6667C20.6667 10.1362 20.4559 9.62753 20.0809 9.25246C19.7058 8.87738 19.1971 8.66667 18.6667 8.66667C18.1362 8.66667 17.6275 8.87738 17.2524 9.25246C16.8774 9.62753 16.6667 10.1362 16.6667 10.6667C16.6667 11.1971 16.8774 11.7058 17.2524 12.0809C17.6275 12.456 18.1362 12.6667 18.6667 12.6667M14 24.6667C11.171 24.6667 8.45791 23.5429 6.45752 21.5425C4.45714 19.5421 3.33333 16.829 3.33333 14C3.33333 11.171 4.45714 8.45792 6.45752 6.45753C8.45791 4.45714 11.171 3.33334 14 3.33334C16.829 3.33334 19.5421 4.45714 21.5425 6.45753C23.5429 8.45792 24.6667 11.171 24.6667 14C24.6667 16.829 23.5429 19.5421 21.5425 21.5425C19.5421 23.5429 16.829 24.6667 14 24.6667M14 0.666672C6.62666 0.666672 0.666664 6.66667 0.666664 14C0.666664 17.5362 2.07142 20.9276 4.57191 23.4281C5.81002 24.6662 7.27988 25.6483 8.89755 26.3184C10.5152 26.9885 12.249 27.3333 14 27.3333C17.5362 27.3333 20.9276 25.9286 23.4281 23.4281C25.9286 20.9276 27.3333 17.5362 27.3333 14C27.3333 12.249 26.9885 10.5152 26.3184 8.89756C25.6483 7.27988 24.6662 5.81003 23.4281 4.57191C22.19 3.3338 20.7201 2.35167 19.1024 1.68161C17.4848 1.01155 15.751 0.666672 14 0.666672V0.666672Z" fill="#BFBFBF"/>
</svg>
