<svg width="28" height="28" viewBox="0 0 28 28" fill="none" xmlns="http://www.w3.org/2000/svg">
<path d="M24.6667 14C24.6667 11.171 23.5429 8.45792 21.5425 6.45753C19.5421 4.45714 16.829 3.33334 14 3.33334C11.171 3.33334 8.45791 4.45714 6.45752 6.45753C4.45714 8.45792 3.33333 11.171 3.33333 14C3.33333 16.829 4.45714 19.5421 6.45752 21.5425C8.45791 23.5429 11.171 24.6667 14 24.6667C16.829 24.6667 19.5421 23.5429 21.5425 21.5425C23.5429 19.5421 24.6667 16.829 24.6667 14ZM27.3333 14C27.3333 17.5362 25.9286 20.9276 23.4281 23.4281C20.9276 25.9286 17.5362 27.3333 14 27.3333C12.249 27.3333 10.5152 26.9885 8.89755 26.3184C7.27988 25.6483 5.81002 24.6662 4.57191 23.4281C2.07142 20.9276 0.666664 17.5362 0.666664 14C0.666664 10.4638 2.07142 7.0724 4.57191 4.57191C7.07239 2.07143 10.4638 0.666672 14 0.666672C15.751 0.666672 17.4848 1.01155 19.1024 1.68161C20.7201 2.35167 22.19 3.3338 23.4281 4.57191C24.6662 5.81003 25.6483 7.27988 26.3184 8.89756C26.9885 10.5152 27.3333 12.249 27.3333 14ZM11.3333 10.6667C11.3333 11.7333 10.4 12.6667 9.33333 12.6667C8.26666 12.6667 7.33333 11.7333 7.33333 10.6667C7.33333 9.6 8.26666 8.66667 9.33333 8.66667C10.4 8.66667 11.3333 9.6 11.3333 10.6667ZM20.6667 10.6667C20.6667 11.7333 19.7333 12.6667 18.6667 12.6667C17.6 12.6667 16.6667 11.7333 16.6667 10.6667C16.6667 9.6 17.6 8.66667 18.6667 8.66667C19.7333 8.66667 20.6667 9.6 20.6667 10.6667ZM14 20.9733C11.6667 20.9733 9.61333 20 8.41333 18.56L10.3067 16.6667C10.9067 17.6267 12.3333 18.3067 14 18.3067C15.6667 18.3067 17.0933 17.6267 17.6933 16.6667L19.5867 18.56C18.3867 20 16.3333 20.9733 14 20.9733Z" fill="#CF1322"/>
</svg>
